<svg version="1.1" id="레이어_1" xmlns="http://www.w3.org/2000/svg" x="0" y="0" viewBox="0 0 687.5 112.9" xml:space="preserve"><style>.st0{fill:#009fe8}.st1{fill:#1d2087}</style><path class="st0" d="M163.2 10.6c.3-1.3.5-2.9-1.8-2.4-2.4.8-17.6 4-25.3 6.1-7.4 2.1-22.1 6.8-34.7 11.8-12.6 5-27.4 11.6-34.7 15.5-4.5-5-14.5-17.1-17.6-21.6-3.3-4.4-11.9-16-13.3-18.1C34.5.1 33.2-.5 31.6.3c-1.8.8-3.7 5.5-3.4 8.2 0 2.9.5 7.4 2.4 9.5 1.8 2.4 10.3 13.7 12.4 16.6 2.4 3.2 10 12.4 11.3 14-1.3 1-17.1 10.5-23.4 14.7-6.4 4.2-25.8 17.9-28 19.7-1.8 2.1-3.4 4.2-2.1 6.3 1.3 2.4 4.2 6.1 6.1 6.8 2.1.8 4.7 1.1 6.6-.5 1.8-1.3 13.9-10.5 18.7-13.7 4.7-3.2 16.3-11.1 19.5-13.2 3.2-2.4 11.6-7.4 13.4-8.2 1.8 1.8 9.2 9.7 14.7 14.5 5.2 4.9 17.9 16.4 29.4 23 11.8 6.6 24.2 12.4 38.4 14.2 13.7 1.6 26 .3 32.6-2.4 2.6-1.1 4.7-1.8 5-2.4.3-.5 1.6-2.6 1.1-3.4-.3-1.1-.8-1.6-1.8-1.1-1.6 1.1-8.2 2.4-14.2 2.4-6.1-.3-14.7-.8-22.1-3.2-8.2-2.6-20.8-7.6-30.5-13.9C106.9 81.4 96.6 73 91.6 68c-6-5.8-11-11-14.5-15 4.7-2.6 14.7-9 22.6-12.9 7.9-4.2 21.3-10.8 31.8-14.5 10.3-3.7 21.6-7.1 23.9-7.9 2.6-.5 3.9-1.1 5-2.1 1.2-1 2.3-3.1 2.8-5z"/><path class="st1" d="M132.5 74.4c-.3 1-.5 1.9-.5 2.5 0 .4 0 1.8 3.5 1.8.5 0 1.2-.1 2.1-.2 1-.2 1.7-.2 2.2-.2.6 0 1.6.1 2.8.2 1.2.1 2.2.2 2.8.2 6.8 0 12.5-1.5 17.1-4.5 4.5-2.9 6.7-6.2 6.7-9.8 0-4.1-3.5-7.1-10.6-8.8-.2-.1-.4-.3-.4-.5s.1-.5.4-.5c8.7-3.2 13.1-7.3 13.1-12.1 0-4.6-4.6-6.9-13.7-6.9-7.7 0-13.9 1.1-18.5 3.1.6.9.9 1.8.9 2.8.1 4.6-2.6 15.4-7.9 32.9zm18.6-34.7c0-.2.2-.4.4-.4 1.7-.4 3.4-.6 5-.6 4.6 0 5.5 2.7 5.5 5 0 6.1-4.6 9.8-13.8 11-.2 0-.4 0-.5-.2-.1-.1-.2-.3-.1-.5l3.5-14.3zm-4.6 19.1c.1-.2.2-.4.5-.4 1.6-.2 3.4-.5 5.4-1h.3c4.2 1.3 6.4 3.9 6.4 7.8 0 2.6-.9 4.9-2.6 6.9-1.7 2-4 3-6.8 3-1.7 0-3.9-.3-6.4-.9-.1 0-.3-.1-.3-.3-.1-.1-.1-.3-.1-.4l3.6-14.7zm40.1 6l4.2-16.9c0-.2.2-.8 1.6-4.8.6-1.9 1-3.4 1-4.6 0-.6 0-2.4-4.3-2.4-2.2 0-4.6.4-7.2 1.1.4.9.7 1.8.7 2.8 0 1.5-.6 4.4-1.7 9l-4.3 17.3c-1 4.2-1.6 7-1.6 8.4 0 2.7 1.8 4 5.6 4 2 0 4.1-.5 6.2-1.5-1-1.3-1.6-2.8-1.6-4.6.2-1.9.6-4.5 1.4-7.8zm44.5-9.7l1.3-4c.5-1.6.7-2.9.7-3.9 0-.6 0-2.6-4.9-2.6-1.9 0-3.7.2-5.5.6.2.7.4 1.3.4 1.9 0 3.8-2.3 8.9-7 15.6-6.3 8.9-8.3 10.1-9.3 10.1-.5 0-1.6-.2-1.6-1.9 0-2.4 1.5-8.7 4.5-19.5.7-2.5.9-3.6.9-4 0-1.1-.4-2.7-4.3-2.7-1.8 0-4.1.4-6.5 1 .3.7.5 1.4.5 2.2 0 2.8-.9 7.1-2.7 13.3-1.8 6-2.7 10.3-2.7 12.9 0 3.3 2 4.9 6.1 4.9 5.5 0 11.1-4.5 16.7-13.4.1-.2.4-.3.7-.2.2.1.4.4.3.6-.6 2.8-.9 5.3-.9 7.4 0 3.6 1.9 5.3 6.1 5.3 2.1 0 4-.6 5.7-1.6-.9-1.8-1.4-3.8-1.4-6.1-.1-3.9 1-9.2 2.9-15.9zM246.3 68c0-.9.1-2.1.3-3.5 0-.3.3-.5.5-.5 6.6-.1 12.1-1.5 16.5-4.1 4.3-2.6 6.4-5.8 6.4-10.1 0-3.8-2.8-5.6-8.6-5.6-7.2 0-13.4 2.6-18.6 7.7-5.1 5.1-7.7 10.9-7.7 17.2 0 6.6 4.7 9.8 14.3 9.8 4 0 8.1-.7 12.1-2.2 3.8-1.4 5.8-3.1 5.8-5 0-.4-.2-1-.5-1.5-5.1 3.2-9.6 4.8-13.5 4.8-4.6 0-7-2.4-7-7zM257 47.8c1.7 0 3.7.7 3.7 4 0 5.8-4.4 8.8-13 8.9-.2 0-.3-.1-.4-.2-.1-.1-.1-.3-.1-.5 2.3-8 5.6-12.2 9.8-12.2zm35.7-4.6c0 3.7 1.6 8.8 4.6 15 .1.2.1.5-.1.7-3.1 2.5-6.5 5.8-10.1 9.8-4.4 4.9-5.4 7.1-5.4 8 0 1.2 1.4 1.7 4.3 1.7 1.3 0 2.7-.2 4.1-.6v-.3c0-4.3 3.2-9.3 9.4-14.8.1-.1.3-.2.5-.1.2 0 .3.2.4.3 4.6 10.3 9 15.6 13.2 15.6 2.9 0 5.7-1.8 8.4-5.3-3.8-1.4-8.1-6.6-13-16-.1-.2-.1-.5.2-.7 12-8.7 18.1-15 18.1-18.7 0-.5 0-1.9-3.8-1.9-1.7 0-3.5.4-5.4 1 .2.5.4 1 .4 1.5 0 2.4-3.6 7.1-11 14.3-.1.1-.3.2-.5.1-.2 0-.3-.2-.4-.3-2.6-6.6-3.9-11.9-3.9-15.7v-.9c-6.6 1.4-10 3.8-10 7.3z"/><path class="st1" d="M331 58.4c-.9 0-1.6-.1-2-.1-3.3 0-5.8 1.9-7.7 5.9 1.8-.3 4-.5 6.6-.5h1.8c5.8 0 8.9-2 9.5-6.1-1.9.5-3.9.8-6 .8H331zm12.9 9.6c-1.3 4.2-2 6.9-2 8 0 .6 0 2.5 4.8 2.5 1.9 0 3.8-.2 5.5-.6-.2-.7-.4-1.3-.4-1.9 0-2.8 1.8-7.1 5.5-13 3.8-6 7-8.9 10-8.9.9 0 1.8.5 2.7 1.5 3.4-3.3 5.2-6.4 5.2-9.4 0-.9-.3-2-2.8-2-4 0-9.1 4.5-15.2 13.4-.1.2-.4.3-.7.2-.2-.1-.4-.4-.3-.7 1.6-5.3 2.4-8.7 2.4-10 0-1.1-.4-2.7-4.3-2.7-1.8 0-4 .4-6.5 1 .3.7.5 1.4.5 2.2.1 4-1.4 10.8-4.4 20.4zm66.8-10.7c1.3-5.2 2.6-9.1 4.1-11.6-2.1-.7-4.2-1.1-6.4-1.1-1.9 0-3.4.5-4.4 1.4-.2.1-.4.2-.6.1-2.3-1.2-4.9-1.8-7.8-1.8-6 0-11.2 2.8-15.5 8.5-4.3 5.7-6.5 11.5-6.5 17.4 0 5.9 2.5 8.8 7.7 8.8 5.1 0 10.8-4.5 16.9-13.5.1-.2.4-.3.7-.2.2.1.4.4.3.6-.6 3-.8 5.5-.8 7.4 0 3.6 2 5.3 6.1 5.3 2.1 0 4-.5 5.7-1.6-.9-1.8-1.4-3.8-1.4-6.1-.2-3.4.5-8 1.9-13.6zm-8.4-4.1c-2.1 3.7-4.8 7.8-8.2 12.3-4.7 6.2-6.5 7-7.4 7-1.2 0-2.6-.7-2.6-4.2 0-3.7 1-8 3-12.6 2.1-4.8 4.6-7.2 7.5-7.2 2.5 0 5.1 1.4 7.6 4.1.2.1.2.4.1.6zm27.5 22.7c-2.3 3.4-5.1 5.1-8.5 5.1-1.2 0-2.4-.3-3.6-.9-1.6 1.8-2.4 3.3-2.4 4.4 0 .6 0 2.2 4.6 2.2 5.4 0 13.3-5.8 23.3-17.3 12.6-14.3 15.2-19.5 15.2-21.4 0-1.9-3.1-3-8.8-3.2.3.9.4 1.7.4 2.3 0 2.5-1.6 6.2-5 11.2l-7.3 10.3c-.1.2-.4.3-.6.2-.2 0-.4-.2-.4-.4-1-5.3-1.8-11.6-2.5-18.6-.7-3.6-2.2-5.4-4.7-5.4-2.8 0-5.5.8-8.2 2.2 2.7 3.5 5.5 12.9 8.6 28.7 0 .4-.1.5-.1.6z"/><path class="st0" d="M514.8 61.4c0 2.5-.4 4.8-1.3 6.9s-2.1 3.9-3.6 5.4c-1.6 1.5-3.4 2.7-5.6 3.6-2.2.9-4.6 1.3-7.3 1.3h-13.3V44.3H497c2.7 0 5.1.4 7.3 1.3s4.1 2.1 5.6 3.6c1.6 1.5 2.8 3.3 3.6 5.4.8 2.1 1.3 4.4 1.3 6.8zm-8.2 0c0-1.7-.2-3.2-.7-4.6-.4-1.4-1.1-2.5-1.9-3.5-.8-.9-1.8-1.7-3-2.2-1.2-.5-2.5-.8-4.1-.8h-5.3v22h5.3c1.5 0 2.9-.3 4.1-.8 1.2-.5 2.2-1.2 3-2.2.8-.9 1.5-2.1 1.9-3.5.5-1.1.7-2.7.7-4.4zm33.5 10.8v6.3h-20.6V44.3h7.9v27.9h12.7zm16.1-27.9c2.4 0 4.5.3 6.2.9 1.7.6 3.2 1.4 4.3 2.4 1.1 1 1.9 2.2 2.5 3.5.5 1.4.8 2.8.8 4.4 0 1.7-.3 3.3-.8 4.7s-1.4 2.6-2.5 3.7-2.6 1.8-4.3 2.4c-1.7.6-3.8.9-6.1.9h-4.1v11.4h-7.9V44.3h11.9zm0 16.8c2.1 0 3.6-.5 4.5-1.5.9-1 1.4-2.4 1.4-4.1 0-.8-.1-1.5-.4-2.1-.2-.6-.6-1.2-1.1-1.7-.5-.5-1.1-.8-1.8-1.1-.7-.3-1.6-.4-2.6-.4h-4.1v10.9h4.1z"/></svg>