<svg xmlns="http://www.w3.org/2000/svg" width="100" height="100" viewBox="-345 257 100 100"><path d="M-269.7 286.5c-10 0-20.8 11.2-25.3 16.4-4.5-5.2-15.3-16.4-25.3-16.4-13.1 0-23.7 9.1-23.7 20.4 0 11.2 10.6 20.4 23.7 20.4 10 0 20.8-11.2 25.3-16.4 4.5 5.2 15.3 16.4 25.3 16.4 13.1 0 23.7-9.1 23.7-20.4 0-11.2-10.6-20.4-23.7-20.4zm-50.6 35.7c-10.3 0-18.7-6.9-18.7-15.4s8.4-15.4 18.7-15.4c7.6 0 17.6 10 22.1 15.4-4.6 5.5-14.6 15.4-22.1 15.4zm50.6 0c-7.6 0-17.6-10-22.1-15.4 4.6-5.4 14.5-15.4 22.1-15.4 10.3 0 18.7 6.9 18.7 15.4s-8.4 15.4-18.7 15.4z"/></svg>