<svg xmlns="http://www.w3.org/2000/svg" width="12.84mm" height="12.65mm" viewBox="0 0 36.39 35.85">
  <defs>
    <style>
      .cls-1 {
        fill: #ef405b;
      }

      .cls-2 {
        fill: #9e2439;
      }
    </style>
  </defs>
  <g id="레이어_2" data-name="레이어 2">
    <g id="Layer_1" data-name="Layer 1">
      <g>
        <path class="cls-1" d="M30.91,33.11a2.74,2.74,0,0,1,2.73-2.74A9.72,9.72,0,0,1,31.18,30a9.52,9.52,0,0,1-6.5-6,9.42,9.42,0,0,1-.57-3.25,2.75,2.75,0,1,1-5.49,0h0a15,15,0,0,0,15,15h0a2.74,2.74,0,0,1-2.74-2.74"/>
        <path class="cls-1" d="M15,0a2.74,2.74,0,0,0-2.74,2.74V20.82a9.56,9.56,0,0,1-9.55,9.55,2.74,2.74,0,0,0,0,5.48,15,15,0,0,0,15-15V2.74A2.74,2.74,0,0,0,15,0"/>
        <path class="cls-2" d="M36.39,33.11a2.73,2.73,0,0,0-2.74-2.74h0a2.74,2.74,0,0,0,0,5.48h0a2.73,2.73,0,0,0,2.72-2.74"/>
        <path class="cls-2" d="M21.37,23.57a2.74,2.74,0,0,0,2.74-2.74h0a2.75,2.75,0,0,0-5.49,0h0a2.75,2.75,0,0,0,2.75,2.75"/>
      </g>
    </g>
  </g>
</svg>
