<svg xmlns="http://www.w3.org/2000/svg" width="128" height="128" viewBox="0 0 512 512"><path d="M310.75 96.688C316.5 87.094 320 76 320 64c0-35.344-28.656-64-64-64s-64 28.656-64 64c0 12 3.5 23.094 9.25 32.688C169.125 100.094 144 126.969 144 160c0 35.344 28.656 64 64 64v32h32v256h64v-32h-32v-32h32v-32h-32V256h32v-32c35.344 0 64-28.656 64-64 0-33.031-25.125-59.906-57.25-63.312zM256 32c17.625 0 32 14.375 32 32s-14.375 32-32 32-32-14.375-32-32 14.375-32 32-32zm-80 128c0-17.625 14.375-32 32-32s32 14.375 32 32-14.375 32-32 32-32-14.375-32-32zm128 32c-17.625 0-32-14.375-32-32s14.375-32 32-32 32 14.375 32 32-14.375 32-32 32z"/></svg>