<svg xmlns="http://www.w3.org/2000/svg" width="128" height="128" viewBox="0 0 512 512"><path d="M387.188 486.406C394.25 491.688 392.813 496 384 496H192c-8.813 0-10.25-4.313-3.188-9.594l38.375-28.813C234.25 452.313 240 440.813 240 432v-16c0-8.813 7.188-16 16-16h64c8.813 0 16 7.188 16 16v16c0 8.813 5.75 20.313 12.813 25.594l38.375 28.812zM512 48v304c0 17.688-14.313 32-32 32H160v80c0 17.688-14.328 32-32 32H32c-17.672 0-32-14.313-32-32V112c0-17.672 14.328-32 32-32h32V48c0-17.672 14.313-32 32-32h384c17.688 0 32 14.328 32 32zM32 144h96v-32H32v32zm0 64h96v-32H32v32zm32 176c0-8.844-7.156-16-16-16s-16 7.156-16 16 7.156 16 16 16 16-7.156 16-16zM480 80c0-17.688-14.313-32-32-32H128c-17.688 0-32 14.313-32 32h32c17.672 0 32 14.328 32 32v224h288c17.688 0 32-14.313 32-32V80z"/></svg>